PathFileType	4	(X/Y/Z)	/Users/itak/Documents/Research/Walk-IL/dataset/trc/00326_00011.trc
DataRate	CameraRate	NumFrames	NumMarkers	Units	OrigDataRate	OrigDataStartFrame	OrigNumFrames
100.000000	100.000000	4	55	mm	100.000000	370	494
Frame#	Time	RPSI			LPSI			L3			STRN			T10			C7			CLAV			RBAK			LBAK			LSHO			LUPA			LAEL			LAOL			LWTS			LWPS			LFRA			LHPS			LHTS			RSHO			RUPA			RAEL			RAOL			RWTS			RWPS			RFRA			RIFD			RHTS			RHPS			RBHD			LFHD			RFHD			LBHD			LHIP			RHIP			RASI			LASI			LKNE			LTHI			LANK			LTIP			LTOE			LMT1			LMT5			LHEE			RKNE			RTHI			RANK			RTIP			RTOE			RMT1			RMT5			RHEE			LIFD			*53			*54			
		X1	Y1	Z1	X2	Y2	Z2	X3	Y3	Z3	X4	Y4	Z4	X5	Y5	Z5	X6	Y6	Z6	X7	Y7	Z7	X8	Y8	Z8	X9	Y9	Z9	X10	Y10	Z10	X11	Y11	Z11	X12	Y12	Z12	X13	Y13	Z13	X14	Y14	Z14	X15	Y15	Z15	X16	Y16	Z16	X17	Y17	Z17	X18	Y18	Z18	X19	Y19	Z19	X20	Y20	Z20	X21	Y21	Z21	X22	Y22	Z22	X23	Y23	Z23	X24	Y24	Z24	X25	Y25	Z25	X26	Y26	Z26	X27	Y27	Z27	X28	Y28	Z28	X29	Y29	Z29	X30	Y30	Z30	X31	Y31	Z31	X32	Y32	Z32	X33	Y33	Z33	X34	Y34	Z34	X35	Y35	Z35	X36	Y36	Z36	X37	Y37	Z37	X38	Y38	Z38	X39	Y39	Z39	X40	Y40	Z40	X41	Y41	Z41	X42	Y42	Z42	X43	Y43	Z43	X44	Y44	Z44	X45	Y45	Z45	X46	Y46	Z46	X47	Y47	Z47	X48	Y48	Z48	X49	Y49	Z49	X50	Y50	Z50	X51	Y51	Z51	X52	Y52	Z52	X53	Y53	Z53	X54	Y54	Z54	X55	Y55	Z55	

371	3.7	697.8970947265625	951.5830688476562	166.9571685791016	690.2025146484375	953.3399047851562	37.77590942382812	686.9127807617188	1009.151062011719	95.63243103027344	909.226806640625	1207.2099609375	81.63588714599609	668.334716796875	1128.742309570312	80.92879486083984	700.3436889648438	1377.564575195312	56.83757400512695	858.7268676757812	1329.476684570312	72.68429565429688	660.9725341796875	1239.725341796875	126.7544860839844	695.223388671875	1336.436767578125	-44.039794921875	782.4281005859375	1353.98583984375	-95.01650238037109	780.8236083984375	1232.896362304688	-162.2341461181641	841.34423828125	1039.038452148438	-188.7723236083984	781.119140625	1005.492492675781	-137.3408813476562	1052.27734375	916.4722900390625	-123.4292221069336	1032.324462890625	873.8497924804688	-174.0626678466797	905.0346069335938	961.6024169921875	-188.5985870361328	1074.791259765625	820.1055908203125	-156.6824340820312	1112.547729492188	862.3627319335938	-126.9805603027344	750.4041748046875	1373.160034179688	224.1828002929688	727.70751953125	1312.314575195312	285.3862915039062	681.2942504882812	1049.984130859375	313.8114624023438	676.3591918945312	1044.608764648438	219.1560363769531	745.1838989257812	802.7476196289062	320.4286193847656	684.9581909179688	804.4719848632812	366.6228637695312	685.9811401367188	982.3494262695312	332.3967590332031	701.0355834960938	633.8919677734375	333.2781677246094	727.99267578125	691.16357421875	331.9651184082031	673.4522094726562	720.3958740234375	369.7869262695312	729.29296875	1582.20263671875	132.0988006591797	897.6244506835938	1609.256713867188	11.87207412719727	887.5065307617188	1614.151489257812	112.4631042480469	717.0150756835938	1566.740844726562	-11.27092552185059	768.9967041015625	899.4235229492188	-73.65790557861328	789.4476318359375	903.8255004882812	269.6641845703125	887.9070434570312	941.0215454101562	219.2653350830078	893.0475463867188	929.5176391601562	-22.39108467102051	827.8522338867188	444.6856079101562	-46.24264526367188	828.1266479492188	581.1862182617188	-60.08631896972656	532.7467041015625	117.9256973266602	-27.23372268676758	680.8300170898438	269.3940124511719	-49.54644775390625	700.418701171875	32.04817581176758	42.24973297119141	637.2402954101562	42.32603454589844	78.96127319335938	636.0942993164062	51.52706909179688	-36.3085823059082	503.4792175292969	138.6533508300781	38.95743560791016	938.3695678710938	453.5960083007812	234.3041076660156	902.8143920898438	711.9131469726562	268.3388366699219	950.3815307617188	38.57077026367188	196.4824371337891	969.5250854492188	338.4703369140625	218.2787628173828	1140.952026367188	39.64655303955078	130.2559509277344	1081.535278320312	33.73288726806641	93.05760192871094	1051.305419921875	26.59149551391602	205.5668487548828	898.0831298828125	39.37971496582031	150.4488983154297	1158.525634765625	799.0321044921875	-93.37493896484375	nan	nan	nan	nan	nan	nan	
372	3.71	704.6766967773438	952.6409301757812	168.7718963623047	696.686279296875	953.806396484375	39.5766716003418	693.8215942382812	1010.012512207031	97.4376220703125	915.9666137695312	1208.114624023438	82.67186737060547	675.3569946289062	1129.487548828125	82.61235809326172	706.877197265625	1378.2939453125	58.27975845336914	865.3137817382812	1330.311767578125	73.7015380859375	667.2147216796875	1240.54736328125	128.3311767578125	701.452880859375	1337.223388671875	-42.48205947875977	788.5679321289062	1354.692260742188	-93.77330017089844	785.8663940429688	1233.56591796875	-160.8433380126953	843.1254272460938	1038.614990234375	-186.6910400390625	782.4838256835938	1006.273010253906	-134.9551544189453	1052.290405273438	913.181640625	-121.0963973999023	1031.703125	870.7167358398438	-171.5637664794922	905.6011962890625	960.3238525390625	-186.3265533447266	1073.30322265625	816.2114868164062	-153.721435546875	1111.701171875	858.0780639648438	-124.2861328125	757.3707885742188	1374.083618164062	225.4452056884766	735.0892333984375	1313.242309570312	286.8407592773438	691.0203247070312	1050.608520507812	316.3004760742188	685.3670043945312	1044.92626953125	221.6057434082031	760.139404296875	804.6449584960938	322.7247314453125	699.7843627929688	804.8272705078125	368.8739929199219	696.8529052734375	982.7871704101562	334.706298828125	721.03125	634.8101196289062	336.4400329589844	745.4026489257812	692.007568359375	333.9572448730469	690.7756958007812	720.5711059570312	372.3554077148438	735.7865600585938	1582.798095703125	133.5226593017578	903.9287719726562	1610.080932617188	13.10302639007568	893.9412841796875	1614.89013671875	113.7020568847656	723.3375854492188	1567.45947265625	-9.864009857177734	775.5670776367188	899.7322387695312	-71.74227142333984	796.1179809570312	904.9129028320312	271.56005859375	894.6651611328125	941.88330078125	221.1273651123047	899.474365234375	930.2623901367188	-20.52521896362305	841.2416381835938	445.3880004882812	-46.52128219604492	839.6489868164062	581.5722045898438	-59.51239013671875	539.2333984375	125.4277954101562	-28.03527641296387	690.7454223632812	273.3650207519531	-50.01589965820312	701.986083984375	31.62455368041992	41.84140777587891	640.0791625976562	45.45571899414062	78.65278625488281	639.2586669921875	53.72937774658203	-36.84365081787109	510.8605041503906	147.4314575195312	38.12040328979492	941.8880004882812	453.6275329589844	235.9917602539062	908.63818359375	712.4398803710938	269.8082885742188	950.7232666015625	38.76503372192383	196.2519073486328	972.4125366210938	337.9954528808594	219.1600036621094	1141.5068359375	37.75088119506836	130.0169677734375	1081.938232421875	32.94540786743164	92.81145477294922	1051.539794921875	26.46425437927246	205.5285949707031	898.34912109375	39.66934967041016	150.3894500732422	1156.41552734375	794.0335083007812	-89.97334289550781	nan	nan	nan	nan	nan	nan	
373	3.72	711.293701171875	953.5267944335938	170.6072998046875	702.9521484375	954.1654663085938	41.38776397705078	700.5040283203125	1010.831787109375	99.28739929199219	922.513671875	1208.933227539062	83.61229705810547	682.2098388671875	1130.201904296875	84.33348083496094	713.2679443359375	1378.988647460938	59.72673034667969	871.7538452148438	1331.087158203125	74.64723205566406	673.3109130859375	1241.314086914062	129.9372711181641	707.5048217773438	1337.964965820312	-40.92958831787109	794.5084228515625	1355.35888671875	-92.57843017578125	790.71435546875	1234.195678710938	-159.4843597412109	844.8515625	1038.239379882812	-184.6567535400391	783.8358154296875	1007.076721191406	-132.6177062988281	1052.1201171875	909.6994018554688	-118.8109283447266	1030.878662109375	867.510498046875	-169.1958465576172	906.0961303710938	959.0383911132812	-184.1184997558594	1071.562255859375	812.2022094726562	-150.9701690673828	1110.612915039062	853.5812377929688	-121.7258911132812	764.2637329101562	1374.932495117188	226.6962738037109	742.4561767578125	1314.0859375	288.3139343261719	700.7784423828125	1051.161743164062	318.8663024902344	694.2623901367188	1045.159912109375	224.1822204589844	775.2472534179688	806.6026000976562	324.8489074707031	714.942626953125	805.223388671875	371.1330261230469	707.8171997070312	983.1690673828125	337.1111450195312	741.6117553710938	635.9634399414062	339.6635437011719	763.3212890625	693.1830444335938	336.0408325195312	708.594970703125	720.8634033203125	374.9725952148438	742.1746826171875	1583.374389648438	134.9246368408203	910.1104736328125	1610.874633789062	14.28938674926758	900.276611328125	1615.60400390625	114.8871383666992	729.5367431640625	1568.156494140625	-8.48284912109375	781.9859619140625	900.0278930664062	-69.82536315917969	802.6566162109375	905.7822265625	273.4245300292969	901.2740478515625	942.57568359375	222.9646301269531	905.71484375	930.9896850585938	-18.67865753173828	854.5441284179688	446.2593383789062	-46.89962387084961	851.0581665039062	582.0692138671875	-59.02461242675781	546.207275390625	132.9332580566406	-28.98437309265137	700.9594116210938	277.3594665527344	-50.59295272827148	704.2008056640625	31.23803329467773	41.24729156494141	643.4813232421875	48.90252685546875	78.21230316162109	642.9029541015625	56.24898910522461	-37.46731185913086	518.6555786132812	156.0496215820312	37.13193893432617	945.3001098632812	453.5543823242188	237.4219055175781	914.3035888671875	712.785888671875	271.1857299804688	951.01416015625	38.96102905273438	196.0128326416016	975.1648559570312	337.5075073242188	219.904296875	1141.918212890625	36.15407943725586	129.7590484619141	1082.263793945312	32.27392959594727	92.51203918457031	1051.75390625	26.41757583618164	205.4410552978516	898.56689453125	39.91561889648438	150.3141937255859	1154.068481445312	788.8443603515625	-86.88401031494141	nan	nan	nan	nan	nan	nan	
374	3.73	717.74462890625	954.2465209960938	172.4443969726562	709.012939453125	954.4179077148438	43.1905403137207	706.9554443359375	1011.611694335938	101.1736221313477	928.86279296875	1209.664184570312	84.45712280273438	688.8916625976562	1130.887084960938	86.09230804443359	719.51025390625	1379.653930664062	61.18037796020508	878.0426635742188	1331.802734375	75.52388763427734	679.3067626953125	1242.017944335938	131.5773010253906	713.3755493164062	1338.66357421875	-39.38325881958008	800.2484741210938	1355.97900390625	-91.43450927734375	795.3668823242188	1234.762084960938	-158.1471557617188	846.5493774414062	1037.898681640625	-182.6702575683594	785.199951171875	1007.877563476562	-130.334228515625	1051.783813476562	906.041259765625	-116.5896835327148	1029.876953125	864.2319946289062	-166.9711608886719	906.541748046875	957.7337036132812	-181.9791564941406	1069.601806640625	808.0982055664062	-148.4496307373047	1109.306640625	848.8939208984375	-119.3153915405273	771.0779418945312	1375.702758789062	227.9415283203125	749.8001098632812	1314.835083007812	289.8063049316406	710.5718383789062	1051.633178710938	321.5050964355469	703.046630859375	1045.294921875	226.8951416015625	790.4895629882812	808.6633911132812	326.82861328125	730.40869140625	805.6742553710938	373.3918762207031	718.8690185546875	983.490234375	339.6173706054688	762.6898193359375	637.3821411132812	342.88330078125	781.727783203125	694.7874755859375	338.2488403320312	726.8598022460938	721.2952270507812	377.6111450195312	748.45654296875	1583.943359375	136.3041229248047	916.1670532226562	1611.636108398438	15.4246940612793	906.5139770507812	1616.297241210938	116.0114974975586	735.6077270507812	1568.835083007812	-7.124265670776367	788.2481689453125	900.3155517578125	-67.93183135986328	809.0706176757812	906.4508666992188	275.2467041015625	907.7243041992188	943.1138916015625	224.7608642578125	911.7719116210938	931.700439453125	-16.87478637695312	867.6531982421875	447.3084716796875	-47.31831741333008	862.267822265625	582.6843872070312	-58.59684753417969	553.6159057617188	140.2943420410156	-30.0394401550293	711.3863525390625	281.3176879882812	-51.24338150024414	707.2020263671875	30.94435119628906	40.43149185180664	647.5514526367188	52.59736251831055	77.62477111816406	647.0941772460938	59.06300354003906	-38.18791198730469	526.7960205078125	164.3347320556641	36.04469680786133	948.6296997070312	453.3954467773438	238.5905914306641	919.8046264648438	712.9608764648438	272.4744567871094	951.2579956054688	39.15584564208984	195.7770233154297	977.7935791015625	337.0216064453125	220.5248413085938	1142.20263671875	34.85420227050781	129.4959411621094	1082.519897460938	31.71126556396484	92.17855834960938	1051.948120117188	26.4295482635498	205.3120574951172	898.7449951171875	40.13014984130859	150.2300109863281	1151.513671875	783.4852905273438	-84.12214660644531	nan	nan	nan	nan	nan	nan	
